<svg xmlns="http://www.w3.org/2000/svg" xmlns:xlink="http://www.w3.org/1999/xlink" version="1.1" x="0px" y="0px" viewBox="0 0 100 100" enable-background="new 0 0 100 100" xml:space="preserve"><path d="M45.394,22.654c0.169-0.099,0.361-0.179,0.581-0.233c2.246-0.553,4.172-1.488,4.186-1.494  c0.184-0.303,0.28-0.74,0.328-1.052c-0.573-0.751-0.839-1.653-0.958-2.426c-0.211-0.017-0.49-0.317-0.789-1.387  c-0.41-1.464,0.025-1.681,0.394-1.646c-0.271-0.769-0.276-1.526-0.095-2.226c0.191-0.824,0.631-1.484,1.125-1.995  c0.312-0.336,0.666-0.63,1.041-0.87c0.305-0.214,0.643-0.398,1.011-0.524l0,0l0,0c0.288-0.098,0.595-0.162,0.919-0.177  c1.003-0.088,1.763,0.166,2.308,0.493c0.815,0.455,1.124,1.056,1.124,1.056s2.05,0.146,1.153,4.492h0  c0.276,0.097,0.47,0.479,0.151,1.622c-0.393,1.406-0.751,1.483-0.966,1.335c-0.126,0.719-0.385,1.525-0.894,2.213  c0.051,0.346,0.163,0.874,0.397,1.186c0,0,1.87,0.846,4.123,1.401c0.22,0.054,0.412,0.134,0.581,0.233  c-1.699,2.528-4.586,4.192-7.861,4.192C49.98,26.846,47.093,25.183,45.394,22.654z M31.337,51.262  c-0.299-0.399-0.442-1.074-0.507-1.516c0.651-0.879,0.981-1.91,1.142-2.829c0.275,0.189,0.732,0.09,1.235-1.707  c0.409-1.46,0.16-1.95-0.193-2.073h0c1.147-5.556-1.474-5.743-1.474-5.743s-0.395-0.769-1.437-1.351  c-0.698-0.418-1.669-0.743-2.951-0.631c-0.415,0.02-0.807,0.101-1.175,0.227h0l-0.001,0c-0.471,0.161-0.903,0.396-1.293,0.67  c-0.479,0.307-0.932,0.683-1.331,1.112c-0.632,0.653-1.195,1.497-1.439,2.551c-0.232,0.895-0.225,1.862,0.121,2.846  c-0.471-0.045-1.027,0.232-0.504,2.104c0.383,1.368,0.739,1.752,1.009,1.774c0.151,0.989,0.492,2.142,1.224,3.102  c-0.062,0.399-0.185,0.957-0.419,1.345c-0.017,0.008-2.48,1.203-5.351,1.91c-0.282,0.069-0.527,0.171-0.743,0.298  c2.172,3.232,5.863,5.359,10.05,5.359c4.187,0,7.877-2.127,10.05-5.359c-0.215-0.127-0.461-0.229-0.743-0.298  C33.727,52.344,31.337,51.262,31.337,51.262z M89.851,72.856c0,12.802-10.378,23.179-23.179,23.179S43.492,85.657,43.492,72.856  c0-3.926,0.978-7.624,2.7-10.864l-6.075-3.982c-3.142,3.53-7.719,5.754-12.816,5.754c-9.473,0-17.153-7.68-17.153-17.153  c0-9.473,7.68-17.153,17.153-17.153c3.856,0,7.415,1.273,10.28,3.421l5.837-6.376c-2.221-2.394-3.58-5.598-3.58-9.121  c0-7.41,6.007-13.417,13.417-13.417c7.41,0,13.417,6.007,13.417,13.417s-6.007,13.417-13.417,13.417  c-2.668,0-5.153-0.782-7.242-2.125l-5.94,6.488c2.724,3.036,4.381,7.049,4.381,11.449c0,3.16-0.856,6.12-2.347,8.663l5.885,3.857  c4.22-5.733,11.014-9.454,18.679-9.454C79.473,49.676,89.851,60.054,89.851,72.856z M42.133,17.382  c0,6.142,4.979,11.122,11.122,11.122c6.142,0,11.122-4.979,11.122-11.122S59.397,6.26,53.255,6.26  C47.113,6.26,42.133,11.239,42.133,17.382z M41.521,46.611c0-7.853-6.366-14.219-14.219-14.219s-14.219,6.366-14.219,14.219  S19.449,60.83,27.302,60.83S41.521,54.464,41.521,46.611z M85.886,72.856c0-10.612-8.603-19.215-19.215-19.215  c-10.612,0-19.215,8.603-19.215,19.215S56.06,92.07,66.672,92.07C77.284,92.07,85.886,83.468,85.886,72.856z M72.051,79.221  c-0.404-0.539-0.597-1.45-0.685-2.047c0.879-1.187,1.324-2.579,1.543-3.82c0.372,0.256,0.989,0.122,1.668-2.305  c0.552-1.972,0.216-2.633-0.26-2.799h0c1.549-7.503-1.99-7.755-1.99-7.755s-0.534-1.039-1.94-1.824  c-0.942-0.564-2.254-1.003-3.985-0.851c-0.561,0.027-1.09,0.136-1.587,0.306h0l-0.001,0c-0.636,0.218-1.219,0.535-1.746,0.905  c-0.647,0.415-1.258,0.922-1.797,1.502c-0.853,0.882-1.613,2.021-1.943,3.444c-0.313,1.209-0.304,2.515,0.164,3.843  c-0.636-0.061-1.387,0.313-0.68,2.841c0.517,1.847,0.998,2.366,1.362,2.395c0.204,1.336,0.664,2.892,1.653,4.189  c-0.083,0.538-0.249,1.293-0.566,1.816c-0.023,0.011-3.349,1.624-7.227,2.58c-0.38,0.094-0.712,0.231-1.003,0.403  c2.934,4.365,7.917,7.237,13.571,7.237c5.654,0,10.638-2.872,13.571-7.237c-0.291-0.171-0.623-0.309-1.003-0.403  C75.279,80.682,72.051,79.221,72.051,79.221z"></path></svg>