<svg xmlns="http://www.w3.org/2000/svg" xmlns:xlink="http://www.w3.org/1999/xlink" version="1.1" x="0px" y="0px" viewBox="0 0 100 100" enable-background="new 0 0 100 100" xml:space="preserve"><path d="M20.293,47.661v37.467c0,1.204,0.976,2.18,2.18,2.18h20.68h13.079h21.296c1.204,0,2.18-0.976,2.18-2.18V47.661l7.68,7.68  c0.426,0.426,0.984,0.639,1.542,0.639s1.115-0.213,1.541-0.639c0.852-0.851,0.852-2.231,0-3.083L79.707,41.496V26.273  c0-1.204-0.976-2.18-2.18-2.18H64.979c-0.729,0-1.37,0.36-1.765,0.91L51.541,13.331c-0.851-0.852-2.23-0.852-3.082,0L9.53,52.259  c-0.852,0.851-0.852,2.232,0,3.083c0.852,0.852,2.231,0.852,3.083,0L20.293,47.661z M45.333,82.948V67.689h8.719v15.258H45.333z   M67.159,28.453h8.188v8.684l-8.188-8.188V28.453z M50,17.954l25.348,25.347v2.059v37.587H58.411V65.51  c0-1.205-0.976-2.18-2.18-2.18H43.153c-1.205,0-2.18,0.976-2.18,2.18v17.438h-16.32V43.301L50,17.954z"></path></svg>