<svg xmlns="http://www.w3.org/2000/svg" viewBox="0 0 64 64" x="0px" y="0px"><g data-name="Layer 4"><path d="M56.184,33a3,3,0,1,0,0-2H50V22.414L52.414,20h1.77a3,3,0,1,0,0-2H52a1,1,0,0,0-.707.293l-2.478,2.478L43,17.692V12h3.184a3,3,0,1,0,0-2H42a1,1,0,0,0-1,1v5.633L33,12.4V7.816a3,3,0,1,0-2,0V12.4l-8,4.235V11a1,1,0,0,0-1-1H17.816a3,3,0,1,0,0,2H21v5.692l-5.815,3.079-2.478-2.478A1,1,0,0,0,12,18H9.816a3,3,0,1,0,0,2h1.77L14,22.414V31H7.816a3,3,0,1,0,0,2H14v8.586L11.586,44H9.816a3,3,0,1,0,0,2H12a1,1,0,0,0,.707-.293l2.478-2.478L21,46.308V52H17.816a3,3,0,1,0,0,2H22a1,1,0,0,0,1-1V47.367L31,51.6v4.582a3,3,0,1,0,2,0V51.6l8-4.235V53a1,1,0,0,0,1,1h4.184a3,3,0,1,0,0-2H43V46.308l5.815-3.079,2.478,2.478A1,1,0,0,0,52,46h2.184a3,3,0,1,0,0-2h-1.77L50,41.586V33ZM59,31a1,1,0,1,1-1,1A1,1,0,0,1,59,31ZM57,18a1,1,0,1,1-1,1A1,1,0,0,1,57,18Zm-8-8a1,1,0,1,1-1,1A1,1,0,0,1,49,10ZM15,12a1,1,0,1,1,1-1A1,1,0,0,1,15,12ZM7,20a1,1,0,1,1,1-1A1,1,0,0,1,7,20ZM5,33a1,1,0,1,1,1-1A1,1,0,0,1,5,33ZM7,46a1,1,0,1,1,1-1A1,1,0,0,1,7,46Zm8,8a1,1,0,1,1,1-1A1,1,0,0,1,15,54Zm34-2a1,1,0,1,1-1,1A1,1,0,0,1,49,52Zm8-8a1,1,0,1,1-1,1A1,1,0,0,1,57,44ZM32,4a1,1,0,1,1-1,1A1,1,0,0,1,32,4Zm0,56a1,1,0,1,1,1-1A1,1,0,0,1,32,60ZM48,41.4,32,49.869,16,41.4V22.6l16-8.471L48,22.6Z"></path><path d="M31.553,16.105l-14,7A1,1,0,0,0,17,24V40a1,1,0,0,0,.553.9l14,7a1,1,0,0,0,.894,0l14-7A1,1,0,0,0,47,40V24a1,1,0,0,0-.553-.895l-14-7A1,1,0,0,0,31.553,16.105ZM45,24.618V39.382l-13,6.5-13-6.5V24.618l13-6.5Z"></path><path d="M25,31.764,22.9,27.553A1,1,0,0,0,21,28v9h2V32.236l2.105,4.211A1,1,0,0,0,27,36V27H25Z"></path><path d="M29,28v9h2V33h3V31H31V29h4V27H30A1,1,0,0,0,29,28Z"></path><polygon points="39 37 41 37 41 29 43 29 43 27 37 27 37 29 39 29 39 37"></polygon></g></svg>