<svg xmlns="http://www.w3.org/2000/svg" xmlns:xlink="http://www.w3.org/1999/xlink" version="1.1" viewBox="0 0 96 96" x="0px" y="0px"><path d="M2 94c-1.1 0-2-0.9-2-2v-88c0-1.104 0.896-2 2-2s2 0.896 2 2v88c0 1.1-0.896 2-2 2z" fill="#000000"></path><path d="M94 76h-52c-1.104 0-2-0.9-2-2v-10c0-1.1 0.896-2 2-2s2 0.9 2 2v8h46.968l-10.804-25.212c-0.212-0.5-0.212-1.080 0-1.584l10.804-25.212h-34.968c-1.1 0-2-0.896-2-2s0.9-2 2-2h38c0.672 0 1.304 0.336 1.672 0.9s0.428 1.272 0.164 1.888l-11.664 27.212 11.664 27.212c0.264 0.616 0.204 1.328-0.164 1.888-0.368 0.572-1 0.908-1.672 0.908z" fill="#000000"></path><path d="M54 64h-44c-1.1 0-2-0.9-2-2v-56c0-1.104 0.9-2 2-2h44c1.104 0 2 0.896 2 2v56c0 1.1-0.896 2-2 2zM12 60h40v-52h-40v52z" fill="#000000"></path><path d="M42 76c-0.512 0-1.024-0.196-1.416-0.584-0.78-0.776-0.78-2.048 0-2.828l12-12c0.78-0.776 2.048-0.776 2.828 0 0.78 0.78 0.78 2.052 0 2.828l-12 12c-0.388 0.388-0.9 0.584-1.412 0.584z" fill="#000000"></path></svg>