<?xml version="1.0" encoding="UTF-8"?><svg id="a" xmlns="http://www.w3.org/2000/svg" viewBox="0 0 2360.88 436.5"><rect x="176.5" y="132" width="136" height="27" style="fill:none;"/><g><circle cx="53" cy="383.5" r="52.5" style="fill:#fac960;"/><path d="M53,436.5c-29.22,0-53-23.78-53-53s23.78-53,53-53,53,23.78,53,53-23.78,53-53,53Zm0-105c-28.67,0-52,23.33-52,52s23.33,52,52,52,52-23.33,52-52-23.33-52-52-52Z" style="fill:#fac960;"/></g><g><rect x="149.5" y="202" width="95" height="234" style="fill:#231f20;"/><path d="M245,436.5h-96V201.5h96v235Zm-95-1h94V202.5h-94v233Z" style="fill:#231f20;"/></g><g><rect x="288.5" y="103" width="95" height="333" style="fill:#231f20;"/><path d="M384,436.5h-96V102.5h96V436.5Zm-95-1h94V103.5h-94V435.5Z" style="fill:#231f20;"/></g><rect x="427.5" width="95" height="436" style="fill:#231f20;"/><g><path d="M620.62,237c0-2.84,2.27-5.4,5.4-5.4h84.91c34.08,0,61.91,27.55,61.91,61.34,0,26.13-17.32,47.14-42.03,57.08l38.91,72.13c1.99,3.69,0,8.24-4.83,8.24h-37.77c-2.27,0-3.98-1.42-4.54-2.56l-37.77-75.26h-19.6v72.42c0,2.84-2.56,5.4-5.4,5.4h-33.79c-3.12,0-5.4-2.56-5.4-5.4V237Zm86.62,79.52c11.64,0,21.58-10.79,21.58-22.72s-9.94-21.58-21.58-21.58h-42.03v44.3h42.03Z" style="fill:#231f20; stroke:#231f20; stroke-miterlimit:10;"/><path d="M839.01,237c0-2.84,2.27-5.4,5.4-5.4h117.57c3.12,0,5.4,2.56,5.4,5.4v30.96c0,2.84-2.27,5.4-5.4,5.4h-78.67v35.22h64.75c2.84,0,5.4,2.56,5.4,5.4v30.96c0,3.12-2.56,5.4-5.4,5.4h-64.75v38.34h78.67c3.12,0,5.4,2.56,5.4,5.4v30.96c0,2.84-2.27,5.4-5.4,5.4h-117.57c-3.12,0-5.4-2.56-5.4-5.4V237Z" style="fill:#231f20; stroke:#231f20; stroke-miterlimit:10;"/><path d="M1121.59,228.76c28.4,0,49.42,8.8,68.73,26.41,2.55,2.27,2.55,5.68,.28,7.95l-22.15,23c-1.99,1.99-5.11,1.99-7.1,0-10.51-9.37-24.42-14.48-38.34-14.48-32.09,0-55.66,26.7-55.66,58.5s23.86,57.65,55.95,57.65c13.35,0,27.83-4.83,38.05-13.63,1.99-1.7,5.68-1.7,7.38,.29l22.15,23.57c1.99,1.99,1.7,5.68-.28,7.67-19.31,18.74-43.74,27.55-69.01,27.55-56.8,0-102.52-45.16-102.52-101.96s45.72-102.52,102.52-102.52Z" style="fill:#231f20; stroke:#231f20; stroke-miterlimit:10;"/><path d="M1252.8,237c0-2.84,2.27-5.4,5.4-5.4h117.57c3.12,0,5.4,2.56,5.4,5.4v30.96c0,2.84-2.27,5.4-5.4,5.4h-78.67v35.22h64.75c2.84,0,5.4,2.56,5.4,5.4v30.96c0,3.12-2.56,5.4-5.4,5.4h-64.75v38.34h78.67c3.12,0,5.4,2.56,5.4,5.4v30.96c0,2.84-2.27,5.4-5.4,5.4h-117.57c-3.12,0-5.4-2.56-5.4-5.4V237Z" style="fill:#231f20; stroke:#231f20; stroke-miterlimit:10;"/><path d="M1447.34,237c0-2.84,2.27-5.4,5.4-5.4h68.44c34.93,0,63.62,28.4,63.62,62.76s-28.68,63.9-63.33,63.9h-29.82v66.74c0,2.84-2.56,5.4-5.4,5.4h-33.51c-3.12,0-5.4-2.56-5.4-5.4V237Zm71.28,79.8c12.21,0,22.44-9.66,22.44-22.44,0-11.93-10.22-21.02-22.44-21.02h-26.98v43.45h26.98Z" style="fill:#231f20; stroke:#231f20; stroke-miterlimit:10;"/><path d="M1668.29,273.35h-40.61c-3.12,0-5.4-2.56-5.4-5.4v-30.96c0-2.84,2.27-5.4,5.4-5.4h126.09c3.12,0,5.4,2.56,5.4,5.4v30.96c0,2.84-2.27,5.4-5.4,5.4h-40.61v151.65c0,2.84-2.56,5.4-5.4,5.4h-34.08c-2.84,0-5.39-2.56-5.39-5.4v-151.65Z" style="fill:#231f20; stroke:#231f20; stroke-miterlimit:10;"/><path d="M1815.68,237c0-2.84,2.56-5.4,5.4-5.4h34.08c2.84,0,5.39,2.56,5.39,5.4v188.01c0,2.84-2.55,5.4-5.39,5.4h-34.08c-2.84,0-5.4-2.56-5.4-5.4V237Z" style="fill:#231f20; stroke:#231f20; stroke-miterlimit:10;"/><path d="M2024.98,228.76c56.8,0,102.24,45.72,102.24,102.52s-45.44,101.96-102.24,101.96-101.96-45.16-101.96-101.96,45.16-102.52,101.96-102.52Zm0,159.04c31.24,0,56.8-25.56,56.8-56.52s-25.56-57.08-56.8-57.08-56.52,25.84-56.52,57.08,25.56,56.52,56.52,56.52Z" style="fill:#231f20; stroke:#231f20; stroke-miterlimit:10;"/><path d="M2189.42,233.87c0-2.84,2.55-5.11,5.39-5.11h7.1l113.31,109.05h.28v-100.82c0-2.84,2.27-5.4,5.4-5.4h34.08c2.84,0,5.39,2.56,5.39,5.4v191.13c0,2.84-2.55,5.11-5.39,5.11h-4.54c-.85,0-3.12-.85-3.69-1.42l-112.18-112.75h-.28v105.93c0,2.84-2.27,5.4-5.4,5.4h-33.79c-2.84,0-5.4-2.56-5.4-5.4l-.28-191.13Z" style="fill:#231f20; stroke:#231f20; stroke-miterlimit:10;"/></g></svg>